<?xml version="1.0" encoding="utf-8"?>
<!-- Generator: Adobe Illustrator 22.0.0, SVG Export Plug-In . SVG Version: 6.00 Build 0)  -->
<svg version="1.1" id="图层_1" xmlns="http://www.w3.org/2000/svg" xmlns:xlink="http://www.w3.org/1999/xlink" x="0px" y="0px"
	 viewBox="0 0 800.2 389.1" style="enable-background:new 0 0 800.2 389.1;" xml:space="preserve">
<g>
	<g>
		<path d="M146.3,166.6c25.3-14.2,60.6-15.1,80,9c4.5,5.6,8,12.1,11,18.7c2.3,5,4.8,10.3,5.4,15.8c1.3,11.5-1.2,23.8-4.8,34.7
			c-4.5,13.4-11.7,24.7-24.1,32c-7.3,4.2-25.4,15.1-33,6.1c-3.4-4-4.4-10.1-2-14.7c3.8-7.4,15.8-6.6,22.7-5.6
			c5.4,0.8,10.9,2.4,15.9,4.6c8.1,3.5,11.4,9.9,8.8,18.6c-2.9,9.9-9.4,19.1-14.4,28.1c-5.6,10.1-11.1,20.2-16.7,30.3
			c-2.5,4.5,3.3,8.9,7.1,5.5c39.6-35.8,77.9-73.2,114.5-112.1c33.7-35.7,69.6-72.6,91.8-116.9c9.3-18.6,16.5-43.3,4.1-62.2
			c-12.1-18.5-34.6-21.6-54.9-19.2c-22,2.6-42.8,11.6-53.6,32c-11,21.1,3.4,42.5,16.9,58.4c15.6,18.4,35.4,35,44.4,57.9
			c10.4,26.6,3.2,56.1-7.8,81.4c-2.3,5.2,4.5,9.5,7.8,4.5c15.2-22.7,32.2-44.1,51-64c9.3-9.8,19-19.3,29.1-28.4
			c5.9-5.3,22.6-20.5,28.5-7c1.5,3.4,6.1,2.5,7.8,0c7.5-10.9,16-21.9,25.9-30.7c4.5-4,9.9-7.4,16.2-6.8c6.8,0.7,12.6,5.3,17.9,9.3
			c1.8,1.4,4.6,2,6.4,0c10.3-12.1,16.5-27.9,28.9-38.3c11.7-9.9,27.2-10.7,36.8,2.3c9,12,10.3,28.2,9,42.7
			c-1.6,17.4-7.8,34.3-15,50.1c-2.4,5.2,5.4,9.8,7.8,4.5c12-26.6,22.8-58.7,13-87.7c-3.6-10.6-10.2-21.1-20.7-26
			c-12.2-5.7-25.5-1.7-35.6,6.3c-13.4,10.6-19.7,26.9-30.6,39.7c2.1,0,4.2,0,6.4,0c-12.4-9.6-26.3-16.8-41-7
			c-13.4,9-24,23.9-33.1,37.1c2.6,0,5.2,0,7.8,0c-5.4-12.2-20.9-11-30.4-4.9c-6.1,4-11.5,9.3-16.9,14.3
			c-5.9,5.4-11.6,10.9-17.2,16.6c-22.2,22.5-42.2,47.2-59.8,73.4c2.6,1.5,5.2,3,7.8,4.5c9-20.8,15.8-43.5,13.7-66.4
			c-2-21.2-12.2-38.8-25.7-54.8c-13.1-15.5-29.7-29.5-39.3-47.7c-5.3-10.1-7.1-20.8-1.1-30.9c5.7-9.7,14.2-16.7,24.6-20.7
			c10.4-4,21.7-5.5,32.7-5.8c9.6-0.2,19.5,2.2,27.2,8c18.7,14,13.1,39.7,4.6,57.9c-20.1,42.8-54.7,78.3-86.6,112.4
			c-38.3,40.9-78.2,80.1-119.7,117.6c2.4,1.8,4.7,3.6,7.1,5.5c5.9-10.7,11.8-21.4,17.7-32c5.2-9.5,12.3-19.4,14.8-30.1
			c1.8-7.8,0.5-16.4-5.5-22.1c-5.3-5-13.1-7.4-19.9-9.3c-9.7-2.6-22.1-3.7-31.3,1.2c-8.8,4.7-11.5,15-8.9,24.1
			c2.9,10.3,11.8,15.7,22.3,14.4c9.2-1.1,18.5-5.7,26.4-10.3c7.3-4.3,13.5-9.7,18.3-16.7c8.8-12.8,13.3-28.7,14.8-44
			c0.6-6.1,0.7-12.3-0.5-18.4c-1.5-7.4-5.4-14.9-8.9-21.6c-8.6-16.4-22.3-30.3-40.9-34.4c-20-4.4-41.8-0.5-59.5,9.5
			C136.7,161.7,141.2,169.5,146.3,166.6L146.3,166.6z"/>
	</g>
</g>
</svg>
